<?xml version="1.0" encoding="utf-8"?>
<!-- Generator: Adobe Illustrator 22.0.1, SVG Export Plug-In . SVG Version: 6.00 Build 0)  -->
<svg version="1.1" id="Livello_1" xmlns="http://www.w3.org/2000/svg" xmlns:xlink="http://www.w3.org/1999/xlink" x="0px" y="0px"
	 viewBox="0 0 667.5 259.8" style="enable-background:new 0 0 667.5 259.8;" xml:space="preserve">
<style type="text/css">
	.st0{fill:#FFFFFF;}
	.st1{fill:#25E5E0;}
</style>
<title>Risorsa 1</title>
<g id="Livello_2_1_">
	<g id="Livello_1-2">
		<path class="st0" d="M226.4,214.7c-118.5,0-131-54.5-131-77.9v-2.5h81.5c0.8,4.7,3.3,28.4,55.4,28.4s56.5-12,56.5-20
			c0-7.8-5-14.5-25.6-14.5h-69.3V78.7h67.3c19.2,0,23.4-5.6,23.4-12v-0.3c0-7.2-3.6-15.8-54.8-15.8S178,68.1,177.5,72.3H96.5v-2.8
			c0-20.9,10-69.5,126.8-69.5h12c119,0,131,30.6,131,53.4v1.7c0,20.6-19.8,32.3-36.4,35.3c20,4.4,44,18.1,44,50.6v2
			c0,34.2-21.7,71.8-134.1,71.8L226.4,214.7z"/>
		<path class="st0" d="M563.8,3.9H391.4v0.7h0.1c30.6,16.3,82.2,11.3,102,8.5c9.1-1.3,18.4-0.7,27.3,1.9
			c21.6,6.5,28.5,21.1,35.1,29.3c8.3,10.3,18.3,24.6,29.1,25.2s14.3-9.1,14.3-9.1c-14.1-11.6-13.8-25.8-13.8-25.8
			s31.5,35.2,37.2,39.4s7.5,7.3,6.4,8.2s-0.3,4.9-12,3.3s-24,0.7-30.6,1.3c-9.6,0.8-23.3,6.1-28.8,15.6c-3.2,5.5-6.1,15.2-8,22.4
			c-1.5,5.7-5.7,10.4-11.2,12.5c0,0,7.9-23.3-14.7-42.3l-52.5,51h92.5c75.7,0,98.2-31.7,98.2-69.3v-4.4
			C662,34.2,640.3,3.9,563.8,3.9z"/>
		<path class="st0" d="M458.9,69.9c-16.1-18.7-44-30.1-67.6-39.2v180.1h79v-3.1l-32.1-68.6C438.3,139.2,485.5,100.9,458.9,69.9z"/>
		<path class="st1" d="M538.5,137.3c5.5-2.1,9.7-6.8,11.2-12.5c1.9-7.2,4.8-16.9,8-22.4c5.4-9.5,19.2-14.8,28.8-15.6
			c6.6-0.6,18.8-2.9,30.6-1.3s11-2.4,12-3.3s-0.8-4-6.4-8.2s-37.2-39.4-37.2-39.4s-0.3,14.2,13.8,25.8c0,0-3.5,9.6-14.3,9.1
			s-20.8-14.9-29.1-25.2c-6.6-8.3-13.6-22.8-35.1-29.3c-8.8-2.6-18.1-3.2-27.3-1.9c-19.8,2.8-71.4,7.8-102-8.5h-0.1v26.1
			c23.6,9,51.5,20.4,67.6,39.2c26.5,31-20.6,69.3-20.6,69.3l32.1,68.6V146h0.9l52.5-51C546.4,113.9,538.5,137.3,538.5,137.3z"/>
		<rect y="3.9" class="st0" width="78.7" height="68.4"/>
		<rect y="79.3" class="st0" width="78.7" height="131.5"/>
		<g>
			<g>
				<path class="st0" d="M509.1,210.2h-5.2v-34.6h5.2V210.2z"/>
				<path class="st0" d="M518.3,175.6l4.5,18.6v-18.6h4.8v34.6h-4.3l-5-19.9v19.9h-4.7v-34.6H518.3z"/>
				<path class="st0" d="M540.6,195.1h5.2v8c0,3.7-1.2,7.5-6.3,7.5h-1.2c-5.3,0-6.5-3.8-6.5-7.3v-21.1c0-3.5,1.5-6.9,6.3-6.9h1.2
					c5.8,0,6.4,3.8,6.4,7.2v6.2h-5.2v-6.1c0-1.5-0.5-2.3-1.8-2.3s-1.6,0.8-1.6,2.3v20.6c0,1.6,0.5,2.4,1.7,2.4s1.7-0.9,1.7-2.3
					L540.6,195.1z"/>
				<path class="st0" d="M549.9,175.6h5.3V203c0,1.5,0.5,2.5,1.7,2.5s1.7-0.9,1.7-2.5v-27.4h5.4v27c0,4.9-2,8-6.6,8h-0.9
					c-4.6,0-6.5-2.9-6.5-8L549.9,175.6z"/>
				<path class="st0" d="M568.3,175.6h8.3c4.3,0,5.5,2.3,5.5,5.6v5.3c0,2.9-1.3,4.3-2.6,4.8c1.3,0.5,3,1.6,3,5.1v7.5
					c0,3.7-1.6,6.3-5.6,6.3h-8.7L568.3,175.6z M573.6,180.3v9h1.6c1.5,0,1.8-1,1.8-2.4v-4.4c0-1.4-0.4-2.2-1.8-2.2H573.6z
					 M573.6,194.4v10.9h1.6c1.7,0,2-0.8,2-2.3v-6.3c0-1.4-0.4-2.2-2-2.2H573.6z"/>
			</g>
			<g>
				<path class="st0" d="M594.8,203.7h-3.9l-0.7,6.5h-4.7l4.2-34.6h6.2l4.5,34.6h-5.1L594.8,203.7z M591.5,198.5h2.7l-1.4-12.8
					L591.5,198.5z"/>
			</g>
			<g>
				<path class="st0" d="M615.1,175.6v5h-4.4v29.6h-5.2v-29.6h-4.4v-5L615.1,175.6z"/>
			</g>
			<g>
				<path class="st0" d="M632.9,202.5c0,4.8-1.6,8.1-6.7,8.1h-0.9c-5,0-6.8-3.3-6.8-8.1v-19.2c0-4.8,1.8-8,6.7-8h0.9
					c5.1,0,6.7,3.2,6.7,7.9V202.5z M627.6,183c0-1.8-0.6-2.6-1.8-2.6s-1.9,0.8-1.9,2.6v19.9c0,1.5,0.4,2.6,1.9,2.6s1.8-1.2,1.8-2.6
					V183z"/>
				<path class="st0" d="M642.5,210.2h-5.3v-34.6h8.5c3.5,0,5.2,1.4,5.2,5.4v6.1c0,2.9-1.3,4-2.3,4.4c1.5,0.6,2.5,2.1,2.3,3.8v12.1
					c0,0.9,0.1,1.8,0.5,2.6v0.2h-5.2c-0.4-0.9-0.6-1.9-0.5-2.8V197c0-1.5-0.3-2.2-2-2.2h-1.3L642.5,210.2z M642.5,189.8h1.4
					c1.4,0,1.9-0.9,1.9-2.5v-4.8c0-1.5-0.3-2.2-1.9-2.2h-1.4V189.8z"/>
				<path class="st0" d="M667.2,175.6v5h-6.7v9.1h5.2v5.3h-5.2v10h7v5.2h-12.3v-34.6H667.2z"/>
			</g>
			<g>
				<path class="st0" d="M356.8,245.1v14.4h-5.2v-34.6h8.3c3.7,0,5.4,1.6,5.4,5.7v8.2c0,4.1-1.8,6.3-5.4,6.3H356.8z M356.8,240.1
					h1.4c1.6,0,1.8-1.1,1.8-2.5v-5.7c0-1.3-0.3-2.4-1.8-2.4h-1.4V240.1z"/>
				<path class="st0" d="M383.6,251.7c0,4.8-1.6,8.1-6.7,8.1H376c-5,0-6.8-3.3-6.8-8.1v-19.2c0-4.8,1.8-8,6.7-8h0.9
					c5.1,0,6.7,3.2,6.7,7.9L383.6,251.7z M378.3,232.2c0-1.8-0.6-2.6-1.8-2.6s-1.9,0.8-1.9,2.6v19.9c0,1.5,0.4,2.6,1.9,2.6
					s1.8-1.2,1.8-2.6V232.2z"/>
				<path class="st0" d="M393.2,224.8v29.2h6.4v5.3h-11.7v-34.6H393.2z"/>
				<path class="st0" d="M408.7,259.4h-5.2v-34.6h5.2V259.4z"/>
				<path class="st0" d="M426.6,224.8v5h-4.4v29.6h-5.2v-29.5h-4.4v-5L426.6,224.8z"/>
			</g>
			<g>
				<path class="st0" d="M442.3,224.8v5h-6.7v9.1h5.2v5.2h-5.2v10h7v5.3h-12.2v-34.6H442.3z"/>
			</g>
			<g>
				<path class="st0" d="M454.8,244.4h5.2v8c0,3.7-1.3,7.5-6.3,7.5h-1.2c-5.3,0-6.5-3.8-6.5-7.3v-21.1c0-3.5,1.5-6.9,6.3-6.9h1.2
					c5.8,0,6.4,3.8,6.4,7.2v6.2h-5.2v-6.1c0-1.5-0.5-2.3-1.8-2.3s-1.6,0.8-1.6,2.3v20.6c0,1.6,0.6,2.4,1.7,2.4
					c1.2,0,1.7-0.9,1.7-2.3L454.8,244.4z"/>
				<path class="st0" d="M468.9,224.8l4.5,18.5v-18.5h4.8v34.6h-4.3l-5-19.9v19.9h-4.7v-34.6H468.9z"/>
				<path class="st0" d="M487.9,259.4h-5.2v-34.6h5.2V259.4z"/>
				<path class="st0" d="M501,244.4h5.2v8c0,3.7-1.2,7.5-6.3,7.5h-1.2c-5.3,0-6.5-3.8-6.5-7.3v-21.1c0-3.5,1.5-6.9,6.3-6.9h1.2
					c5.8,0,6.4,3.8,6.4,7.2v6.2H501v-6.1c0-1.5-0.5-2.3-1.8-2.3s-1.6,0.8-1.6,2.3v20.6c0,1.6,0.6,2.4,1.7,2.4s1.7-0.9,1.7-2.3
					L501,244.4z"/>
				<path class="st0" d="M524.5,251.7c0,4.8-1.6,8.1-6.7,8.1H517c-5,0-6.8-3.3-6.8-8.1v-19.2c0-4.8,1.8-8,6.7-8h0.9
					c5.1,0,6.7,3.2,6.7,7.9L524.5,251.7z M519.2,232.2c0-1.8-0.6-2.6-1.8-2.6s-1.9,0.8-1.9,2.6v19.9c0,1.5,0.4,2.6,1.9,2.6
					s1.8-1.2,1.8-2.6V232.2z"/>
				<path class="st0" d="M535.9,224.8h8c4.5,0,5.9,2.6,5.9,6.6v21c0,4.3-1.6,6.9-5.9,6.9h-8V224.8z M541.2,254.4h1.2
					c1.6,0,2-0.8,2-2.7v-19.5c0-2-0.5-2.7-1.8-2.7h-1.5L541.2,254.4z"/>
				<path class="st0" d="M559.5,259.4h-5.2v-34.6h5.2V259.4z"/>
			</g>
			<g>
				<path class="st0" d="M584.4,224.8v5H580v29.6h-5.2v-29.5h-4.4v-5L584.4,224.8z"/>
			</g>
			<g>
				<path class="st0" d="M602.2,251.7c0,4.8-1.6,8.1-6.7,8.1h-0.9c-5,0-6.8-3.3-6.8-8.1v-19.2c0-4.8,1.8-8,6.7-8h0.9
					c5.1,0,6.7,3.2,6.7,7.9V251.7z M596.9,232.2c0-1.8-0.6-2.6-1.8-2.6s-1.9,0.8-1.9,2.6v19.9c0,1.5,0.4,2.6,1.9,2.6
					s1.8-1.2,1.8-2.6V232.2z"/>
				<path class="st0" d="M611.8,259.4h-5.3v-34.6h8.5c3.5,0,5.2,1.4,5.2,5.4v6.1c0,2.9-1.3,4-2.3,4.4c1.5,0.6,2.5,2.1,2.3,3.8v12.1
					c0,0.9,0.1,1.8,0.5,2.6v0.2h-5.2c-0.4-0.9-0.6-1.9-0.5-2.8v-10.4c0-1.5-0.3-2.2-2-2.2h-1.3V259.4z M611.8,239.1h1.4
					c1.4,0,1.9-0.9,1.9-2.5v-4.8c0-1.5-0.3-2.2-1.9-2.2h-1.4V239.1z"/>
				<path class="st0" d="M629.9,259.4h-5.3v-34.6h5.3V259.4z"/>
				<path class="st0" d="M639.1,224.8l4.5,18.5v-18.5h4.8v34.6h-4.3l-5-19.9v19.9h-4.7v-34.6H639.1z"/>
				<path class="st0" d="M667.1,251.7c0,4.8-1.6,8.1-6.7,8.1h-0.9c-5,0-6.8-3.3-6.8-8.1v-19.2c0-4.8,1.8-8,6.7-8h0.9
					c5.1,0,6.7,3.2,6.7,7.9L667.1,251.7z M661.7,232.2c0-1.8-0.6-2.6-1.8-2.6s-1.9,0.8-1.9,2.6v19.9c0,1.5,0.4,2.6,1.9,2.6
					s1.8-1.2,1.8-2.6V232.2z"/>
			</g>
		</g>
	</g>
</g>
</svg>
